<?xml version="1.0" standalone="no"?>
 <!DOCTYPE svg PUBLIC "-//W3C//DTD SVG 1.1//EN" 
 "http://www.w3.org/Graphics/SVG/1.1/DTD/svg11.dtd"> 
<svg
  xmlns:svg="http://www.w3.org/2000/svg"
  xmlns="http://www.w3.org/2000/svg"
  xmlns:xlink="http://www.w3.org/1999/xlink"
  version="1.1"
  width="21.000720cm" height="14.800580cm" viewBox="0 0 82680 58270">
<title>SVG Picture created as Board.svg date 2020/09/27 12:19:33 </title>
  <desc>Picture generated by Eeschema-SVG </desc>
<g style="fill:#000000; fill-opacity:1;stroke:#000000; stroke-opacity:1;
stroke-linecap:round; stroke-linejoin:round;"
 transform="translate(0 0) scale(1 1)">
</g>
<g style="fill:#000000; fill-opacity:0.0; 
stroke:#000000; stroke-width:-10; stroke-opacity:1; 
stroke-linecap:round; stroke-linejoin:round;">
</g>
<g style="fill:#840000; fill-opacity:0.0; 
stroke:#840000; stroke-width:-10; stroke-opacity:1; 
stroke-linecap:round; stroke-linejoin:round;">
</g>
<g style="fill:#840000; fill-opacity:0.0; 
stroke:#840000; stroke-width:100; stroke-opacity:1; 
stroke-linecap:round; stroke-linejoin:round;">
</g>
<g style="fill:#840000; fill-opacity:0.0; 
stroke:#840000; stroke-width:60; stroke-opacity:1; 
stroke-linecap:round; stroke-linejoin:round;">
<rect x="35440" y="40950" width="42520" height="12600" rx="0" />
</g>
<g style="fill:#840000; fill-opacity:0.0; 
stroke:#840000; stroke-width:100; stroke-opacity:1; 
stroke-linecap:round; stroke-linejoin:round;">
</g>
<g style="fill:#840000; fill-opacity:0.0; 
stroke:#840000; stroke-width:60; stroke-opacity:1; 
stroke-linecap:round; stroke-linejoin:round;">
<rect x="3940" y="3940" width="74800" height="50390" rx="0" />
</g>
<g style="fill:#840000; fill-opacity:0.0; 
stroke:#840000; stroke-width:100; stroke-opacity:1; 
stroke-linecap:round; stroke-linejoin:round;">
</g>
<g style="fill:#840000; fill-opacity:0.0; 
stroke:#840000; stroke-width:60; stroke-opacity:1; 
stroke-linecap:round; stroke-linejoin:round;">
<rect x="4720" y="4720" width="73240" height="48830" rx="0" />
</g>
<g style="fill:#840000; fill-opacity:0.0; 
stroke:#840000; stroke-width:100; stroke-opacity:1; 
stroke-linecap:round; stroke-linejoin:round;">
</g>
<g style="fill:#840000; fill-opacity:0.0; 
stroke:#840000; stroke-width:60; stroke-opacity:1; 
stroke-linecap:round; stroke-linejoin:round;">
<path d="M23620 4720
L23620 3940
" />
</g>
<g style="fill:#840000; fill-opacity:0.0; 
stroke:#840000; stroke-width:100; stroke-opacity:1; 
stroke-linecap:round; stroke-linejoin:round;">
</g>
<g style="fill:#840000; fill-opacity:0.0; 
stroke:#840000; stroke-width:60; stroke-opacity:1; 
stroke-linecap:round; stroke-linejoin:round;">
<path d="M43310 4720
L43310 3940
" />
</g>
<g style="fill:#840000; fill-opacity:0.0; 
stroke:#840000; stroke-width:100; stroke-opacity:1; 
stroke-linecap:round; stroke-linejoin:round;">
</g>
<g style="fill:#840000; fill-opacity:0.0; 
stroke:#840000; stroke-width:60; stroke-opacity:1; 
stroke-linecap:round; stroke-linejoin:round;">
<path d="M62990 4720
L62990 3940
" />
</g>
<g style="fill:#840000; fill-opacity:0.0; 
stroke:#840000; stroke-width:100; stroke-opacity:1; 
stroke-linecap:round; stroke-linejoin:round;">
</g>
<g style="fill:#840000; fill-opacity:0.0; 
stroke:#840000; stroke-width:60; stroke-opacity:1; 
stroke-linecap:round; stroke-linejoin:round;">
<text x="13780" y="4580"
textLength="550" font-size="680" lengthAdjust="spacingAndGlyphs"
text-anchor="start" opacity="0">1</text>
<path d="M14190 4560
L13900 4560
" />
<path d="M14050 4560
L14050 4050
L14000 4120
L13950 4170
L13900 4190
" />
</g>
<g style="fill:#840000; fill-opacity:0.0; 
stroke:#840000; stroke-width:100; stroke-opacity:1; 
stroke-linecap:round; stroke-linejoin:round;">
</g>
<g style="fill:#840000; fill-opacity:0.0; 
stroke:#840000; stroke-width:60; stroke-opacity:1; 
stroke-linecap:round; stroke-linejoin:round;">
<text x="33460" y="4580"
textLength="550" font-size="680" lengthAdjust="spacingAndGlyphs"
text-anchor="start" opacity="0">2</text>
<path d="M33580 4090
L33610 4070
L33660 4050
L33780 4050
L33830 4070
L33850 4090
L33870 4140
L33870 4190
L33850 4260
L33560 4560
L33870 4560
" />
</g>
<g style="fill:#840000; fill-opacity:0.0; 
stroke:#840000; stroke-width:100; stroke-opacity:1; 
stroke-linecap:round; stroke-linejoin:round;">
</g>
<g style="fill:#840000; fill-opacity:0.0; 
stroke:#840000; stroke-width:60; stroke-opacity:1; 
stroke-linecap:round; stroke-linejoin:round;">
<text x="53150" y="4580"
textLength="550" font-size="680" lengthAdjust="spacingAndGlyphs"
text-anchor="start" opacity="0">3</text>
<path d="M53250 4050
L53560 4050
L53390 4240
L53470 4240
L53520 4260
L53540 4290
L53560 4340
L53560 4460
L53540 4510
L53520 4530
L53470 4560
L53320 4560
L53270 4530
L53250 4510
" />
</g>
<g style="fill:#840000; fill-opacity:0.0; 
stroke:#840000; stroke-width:100; stroke-opacity:1; 
stroke-linecap:round; stroke-linejoin:round;">
</g>
<g style="fill:#840000; fill-opacity:0.0; 
stroke:#840000; stroke-width:60; stroke-opacity:1; 
stroke-linecap:round; stroke-linejoin:round;">
<text x="72830" y="4580"
textLength="550" font-size="680" lengthAdjust="spacingAndGlyphs"
text-anchor="start" opacity="0">4</text>
<path d="M73200 4220
L73200 4560
" />
<path d="M73070 4020
L72950 4390
L73270 4390
" />
</g>
<g style="fill:#840000; fill-opacity:0.0; 
stroke:#840000; stroke-width:100; stroke-opacity:1; 
stroke-linecap:round; stroke-linejoin:round;">
</g>
<g style="fill:#840000; fill-opacity:0.0; 
stroke:#840000; stroke-width:60; stroke-opacity:1; 
stroke-linecap:round; stroke-linejoin:round;">
<path d="M23620 53550
L23620 54330
" />
</g>
<g style="fill:#840000; fill-opacity:0.0; 
stroke:#840000; stroke-width:100; stroke-opacity:1; 
stroke-linecap:round; stroke-linejoin:round;">
</g>
<g style="fill:#840000; fill-opacity:0.0; 
stroke:#840000; stroke-width:60; stroke-opacity:1; 
stroke-linecap:round; stroke-linejoin:round;">
<path d="M43310 53550
L43310 54330
" />
</g>
<g style="fill:#840000; fill-opacity:0.0; 
stroke:#840000; stroke-width:100; stroke-opacity:1; 
stroke-linecap:round; stroke-linejoin:round;">
</g>
<g style="fill:#840000; fill-opacity:0.0; 
stroke:#840000; stroke-width:60; stroke-opacity:1; 
stroke-linecap:round; stroke-linejoin:round;">
<path d="M62990 53550
L62990 54330
" />
</g>
<g style="fill:#840000; fill-opacity:0.0; 
stroke:#840000; stroke-width:100; stroke-opacity:1; 
stroke-linecap:round; stroke-linejoin:round;">
</g>
<g style="fill:#840000; fill-opacity:0.0; 
stroke:#840000; stroke-width:60; stroke-opacity:1; 
stroke-linecap:round; stroke-linejoin:round;">
<text x="13780" y="54190"
textLength="550" font-size="680" lengthAdjust="spacingAndGlyphs"
text-anchor="start" opacity="0">1</text>
<path d="M14190 54170
L13900 54170
" />
<path d="M14050 54170
L14050 53660
L14000 53730
L13950 53780
L13900 53800
" />
</g>
<g style="fill:#840000; fill-opacity:0.0; 
stroke:#840000; stroke-width:100; stroke-opacity:1; 
stroke-linecap:round; stroke-linejoin:round;">
</g>
<g style="fill:#840000; fill-opacity:0.0; 
stroke:#840000; stroke-width:60; stroke-opacity:1; 
stroke-linecap:round; stroke-linejoin:round;">
<text x="33460" y="54190"
textLength="550" font-size="680" lengthAdjust="spacingAndGlyphs"
text-anchor="start" opacity="0">2</text>
<path d="M33580 53700
L33610 53680
L33660 53660
L33780 53660
L33830 53680
L33850 53700
L33870 53750
L33870 53800
L33850 53870
L33560 54170
L33870 54170
" />
</g>
<g style="fill:#840000; fill-opacity:0.0; 
stroke:#840000; stroke-width:100; stroke-opacity:1; 
stroke-linecap:round; stroke-linejoin:round;">
</g>
<g style="fill:#840000; fill-opacity:0.0; 
stroke:#840000; stroke-width:60; stroke-opacity:1; 
stroke-linecap:round; stroke-linejoin:round;">
<text x="53150" y="54190"
textLength="550" font-size="680" lengthAdjust="spacingAndGlyphs"
text-anchor="start" opacity="0">3</text>
<path d="M53250 53660
L53560 53660
L53390 53850
L53470 53850
L53520 53870
L53540 53900
L53560 53950
L53560 54070
L53540 54120
L53520 54140
L53470 54170
L53320 54170
L53270 54140
L53250 54120
" />
</g>
<g style="fill:#840000; fill-opacity:0.0; 
stroke:#840000; stroke-width:100; stroke-opacity:1; 
stroke-linecap:round; stroke-linejoin:round;">
</g>
<g style="fill:#840000; fill-opacity:0.0; 
stroke:#840000; stroke-width:60; stroke-opacity:1; 
stroke-linecap:round; stroke-linejoin:round;">
<text x="72830" y="54190"
textLength="550" font-size="680" lengthAdjust="spacingAndGlyphs"
text-anchor="start" opacity="0">4</text>
<path d="M73200 53830
L73200 54170
" />
<path d="M73070 53630
L72950 54000
L73270 54000
" />
</g>
<g style="fill:#840000; fill-opacity:0.0; 
stroke:#840000; stroke-width:100; stroke-opacity:1; 
stroke-linecap:round; stroke-linejoin:round;">
</g>
<g style="fill:#840000; fill-opacity:0.0; 
stroke:#840000; stroke-width:60; stroke-opacity:1; 
stroke-linecap:round; stroke-linejoin:round;">
<path d="M3940 23620
L4720 23620
" />
</g>
<g style="fill:#840000; fill-opacity:0.0; 
stroke:#840000; stroke-width:100; stroke-opacity:1; 
stroke-linecap:round; stroke-linejoin:round;">
</g>
<g style="fill:#840000; fill-opacity:0.0; 
stroke:#840000; stroke-width:60; stroke-opacity:1; 
stroke-linecap:round; stroke-linejoin:round;">
<path d="M3940 43310
L4720 43310
" />
</g>
<g style="fill:#840000; fill-opacity:0.0; 
stroke:#840000; stroke-width:100; stroke-opacity:1; 
stroke-linecap:round; stroke-linejoin:round;">
</g>
<g style="fill:#840000; fill-opacity:0.0; 
stroke:#840000; stroke-width:60; stroke-opacity:1; 
stroke-linecap:round; stroke-linejoin:round;">
<text x="4330" y="14030"
textLength="500" font-size="680" lengthAdjust="spacingAndGlyphs"
text-anchor="middle" opacity="0">A</text>
<path d="M4200 13860
L4450 13860
" />
<path d="M4160 14010
L4330 13500
L4500 14010
" />
</g>
<g style="fill:#840000; fill-opacity:0.0; 
stroke:#840000; stroke-width:100; stroke-opacity:1; 
stroke-linecap:round; stroke-linejoin:round;">
</g>
<g style="fill:#840000; fill-opacity:0.0; 
stroke:#840000; stroke-width:60; stroke-opacity:1; 
stroke-linecap:round; stroke-linejoin:round;">
<text x="4330" y="33710"
textLength="570" font-size="680" lengthAdjust="spacingAndGlyphs"
text-anchor="middle" opacity="0">B</text>
<path d="M4360 33420
L4430 33440
L4460 33470
L4480 33520
L4480 33590
L4460 33640
L4430 33660
L4390 33690
L4190 33690
L4190 33180
L4360 33180
L4410 33200
L4430 33220
L4460 33270
L4460 33320
L4430 33370
L4410 33390
L4360 33420
L4190 33420
" />
</g>
<g style="fill:#840000; fill-opacity:0.0; 
stroke:#840000; stroke-width:100; stroke-opacity:1; 
stroke-linecap:round; stroke-linejoin:round;">
</g>
<g style="fill:#840000; fill-opacity:0.0; 
stroke:#840000; stroke-width:60; stroke-opacity:1; 
stroke-linecap:round; stroke-linejoin:round;">
<text x="4330" y="53400"
textLength="570" font-size="680" lengthAdjust="spacingAndGlyphs"
text-anchor="middle" opacity="0">C</text>
<path d="M4480 53330
L4460 53350
L4390 53380
L4340 53380
L4260 53350
L4220 53300
L4190 53250
L4170 53160
L4170 53080
L4190 52990
L4220 52940
L4260 52890
L4340 52870
L4390 52870
L4460 52890
L4480 52910
" />
</g>
<g style="fill:#840000; fill-opacity:0.0; 
stroke:#840000; stroke-width:100; stroke-opacity:1; 
stroke-linecap:round; stroke-linejoin:round;">
</g>
<g style="fill:#840000; fill-opacity:0.0; 
stroke:#840000; stroke-width:60; stroke-opacity:1; 
stroke-linecap:round; stroke-linejoin:round;">
<path d="M78740 23620
L77960 23620
" />
</g>
<g style="fill:#840000; fill-opacity:0.0; 
stroke:#840000; stroke-width:100; stroke-opacity:1; 
stroke-linecap:round; stroke-linejoin:round;">
</g>
<g style="fill:#840000; fill-opacity:0.0; 
stroke:#840000; stroke-width:60; stroke-opacity:1; 
stroke-linecap:round; stroke-linejoin:round;">
<path d="M78740 43310
L77960 43310
" />
</g>
<g style="fill:#840000; fill-opacity:0.0; 
stroke:#840000; stroke-width:100; stroke-opacity:1; 
stroke-linecap:round; stroke-linejoin:round;">
</g>
<g style="fill:#840000; fill-opacity:0.0; 
stroke:#840000; stroke-width:60; stroke-opacity:1; 
stroke-linecap:round; stroke-linejoin:round;">
<text x="78350" y="14030"
textLength="500" font-size="680" lengthAdjust="spacingAndGlyphs"
text-anchor="middle" opacity="0">A</text>
<path d="M78220 13860
L78470 13860
" />
<path d="M78180 14010
L78350 13500
L78520 14010
" />
</g>
<g style="fill:#840000; fill-opacity:0.0; 
stroke:#840000; stroke-width:100; stroke-opacity:1; 
stroke-linecap:round; stroke-linejoin:round;">
</g>
<g style="fill:#840000; fill-opacity:0.0; 
stroke:#840000; stroke-width:60; stroke-opacity:1; 
stroke-linecap:round; stroke-linejoin:round;">
<text x="78350" y="33710"
textLength="570" font-size="680" lengthAdjust="spacingAndGlyphs"
text-anchor="middle" opacity="0">B</text>
<path d="M78380 33420
L78450 33440
L78480 33470
L78500 33520
L78500 33590
L78480 33640
L78450 33660
L78410 33690
L78210 33690
L78210 33180
L78380 33180
L78430 33200
L78450 33220
L78480 33270
L78480 33320
L78450 33370
L78430 33390
L78380 33420
L78210 33420
" />
</g>
<g style="fill:#840000; fill-opacity:0.0; 
stroke:#840000; stroke-width:100; stroke-opacity:1; 
stroke-linecap:round; stroke-linejoin:round;">
</g>
<g style="fill:#840000; fill-opacity:0.0; 
stroke:#840000; stroke-width:60; stroke-opacity:1; 
stroke-linecap:round; stroke-linejoin:round;">
<text x="78350" y="53400"
textLength="570" font-size="680" lengthAdjust="spacingAndGlyphs"
text-anchor="middle" opacity="0">C</text>
<path d="M78500 53330
L78480 53350
L78410 53380
L78360 53380
L78280 53350
L78240 53300
L78210 53250
L78190 53160
L78190 53080
L78210 52990
L78240 52940
L78280 52890
L78360 52870
L78410 52870
L78480 52890
L78500 52910
" />
</g>
<g style="fill:#840000; fill-opacity:0.0; 
stroke:#840000; stroke-width:100; stroke-opacity:1; 
stroke-linecap:round; stroke-linejoin:round;">
</g>
<g style="fill:#840000; fill-opacity:0.0; 
stroke:#840000; stroke-width:60; stroke-opacity:1; 
stroke-linecap:round; stroke-linejoin:round;">
<text x="44490" y="51910"
textLength="2760" font-size="780" lengthAdjust="spacingAndGlyphs"
text-anchor="start" opacity="0">Date: </text>
<path d="M44660 51880
L44660 51290
L44800 51290
L44880 51320
L44940 51380
L44960 51430
L44990 51540
L44990 51630
L44960 51740
L44940 51800
L44880 51850
L44800 51880
L44660 51880
" />
<path d="M45500 51880
L45500 51570
L45470 51520
L45410 51490
L45300 51490
L45250 51520
" />
<path d="M45500 51850
L45440 51880
L45300 51880
L45250 51850
L45220 51800
L45220 51740
L45250 51690
L45300 51660
L45440 51660
L45500 51630
" />
<path d="M45700 51490
L45920 51490
" />
<path d="M45780 51290
L45780 51800
L45810 51850
L45860 51880
L45920 51880
" />
<path d="M46340 51850
L46290 51880
L46170 51880
L46120 51850
L46090 51800
L46090 51570
L46120 51520
L46170 51490
L46290 51490
L46340 51520
L46370 51570
L46370 51630
L46090 51690
" />
<path d="M46620 51830
L46650 51850
L46620 51880
L46590 51850
L46620 51830
L46620 51880
" />
<path d="M46620 51520
L46650 51540
L46620 51570
L46590 51540
L46620 51520
L46620 51570
" />
</g>
<g style="fill:#840000; fill-opacity:0.0; 
stroke:#840000; stroke-width:100; stroke-opacity:1; 
stroke-linecap:round; stroke-linejoin:round;">
</g>
<g style="fill:#840000; fill-opacity:0.0; 
stroke:#840000; stroke-width:60; stroke-opacity:1; 
stroke-linecap:round; stroke-linejoin:round;">
<path d="M35440 52170
L77960 52170
" />
</g>
<g style="fill:#840000; fill-opacity:0.0; 
stroke:#840000; stroke-width:100; stroke-opacity:1; 
stroke-linecap:round; stroke-linejoin:round;">
</g>
<g style="fill:#840000; fill-opacity:0.0; 
stroke:#840000; stroke-width:60; stroke-opacity:1; 
stroke-linecap:round; stroke-linejoin:round;">
<text x="35830" y="53010"
textLength="13520" font-size="780" lengthAdjust="spacingAndGlyphs"
text-anchor="start" opacity="0">KiCad E.D.A.  kicad (5.1.6)-1</text>
<path d="M36000 52980
L36000 52390
" />
<path d="M36330 52980
L36080 52640
" />
<path d="M36330 52390
L36000 52730
" />
<path d="M36590 52980
L36590 52590
" />
<path d="M36590 52390
L36560 52420
L36590 52450
L36610 52420
L36590 52390
L36590 52450
" />
<path d="M37200 52930
L37180 52950
L37090 52980
L37040 52980
L36950 52950
L36890 52900
L36870 52840
L36840 52730
L36840 52640
L36870 52530
L36890 52480
L36950 52420
L37040 52390
L37090 52390
L37180 52420
L37200 52450
" />
<path d="M37710 52980
L37710 52670
L37680 52620
L37630 52590
L37510 52590
L37460 52620
" />
<path d="M37710 52950
L37650 52980
L37510 52980
L37460 52950
L37430 52900
L37430 52840
L37460 52790
L37510 52760
L37650 52760
L37710 52730
" />
<path d="M38240 52980
L38240 52390
" />
<path d="M38240 52950
L38190 52980
L38070 52980
L38020 52950
L37990 52930
L37960 52870
L37960 52700
L37990 52640
L38020 52620
L38070 52590
L38190 52590
L38240 52620
" />
<path d="M38970 52670
L39170 52670
" />
<path d="M39250 52980
L38970 52980
L38970 52390
L39250 52390
" />
<path d="M39510 52930
L39540 52950
L39510 52980
L39480 52950
L39510 52930
L39510 52980
" />
<path d="M39790 52980
L39790 52390
L39930 52390
L40010 52420
L40070 52480
L40100 52530
L40130 52640
L40130 52730
L40100 52840
L40070 52900
L40010 52950
L39930 52980
L39790 52980
" />
<path d="M40380 52930
L40410 52950
L40380 52980
L40350 52950
L40380 52930
L40380 52980
" />
<path d="M40630 52810
L40910 52810
" />
<path d="M40580 52980
L40770 52390
L40970 52980
" />
<path d="M41170 52930
L41190 52950
L41170 52980
L41140 52950
L41170 52930
L41170 52980
" />
<path d="M42350 52980
L42350 52390
" />
<path d="M42400 52760
L42570 52980
" />
<path d="M42570 52590
L42350 52810
" />
<path d="M42820 52980
L42820 52590
" />
<path d="M42820 52390
L42790 52420
L42820 52450
L42850 52420
L42820 52390
L42820 52450
" />
<path d="M43360 52950
L43300 52980
L43190 52980
L43130 52950
L43100 52930
L43080 52870
L43080 52700
L43100 52640
L43130 52620
L43190 52590
L43300 52590
L43360 52620
" />
<path d="M43860 52980
L43860 52670
L43830 52620
L43780 52590
L43670 52590
L43610 52620
" />
<path d="M43860 52950
L43810 52980
L43670 52980
L43610 52950
L43580 52900
L43580 52840
L43610 52790
L43670 52760
L43810 52760
L43860 52730
" />
<path d="M44400 52980
L44400 52390
" />
<path d="M44400 52950
L44340 52980
L44230 52980
L44170 52950
L44140 52930
L44120 52870
L44120 52700
L44140 52640
L44170 52620
L44230 52590
L44340 52590
L44400 52620
" />
<path d="M45300 53210
L45270 53180
L45210 53090
L45180 53040
L45150 52950
L45130 52810
L45130 52700
L45150 52560
L45180 52480
L45210 52420
L45270 52340
L45300 52310
" />
<path d="M45800 52390
L45520 52390
L45490 52670
L45520 52640
L45580 52620
L45720 52620
L45770 52640
L45800 52670
L45830 52730
L45830 52870
L45800 52930
L45770 52950
L45720 52980
L45580 52980
L45520 52950
L45490 52930
" />
<path d="M46080 52930
L46110 52950
L46080 52980
L46050 52950
L46080 52930
L46080 52980
" />
<path d="M46670 52980
L46330 52980
" />
<path d="M46500 52980
L46500 52390
L46450 52480
L46390 52530
L46330 52560
" />
<path d="M46920 52930
L46950 52950
L46920 52980
L46900 52950
L46920 52930
L46920 52980
" />
<path d="M47460 52390
L47350 52390
L47290 52420
L47260 52450
L47210 52530
L47180 52640
L47180 52870
L47210 52930
L47230 52950
L47290 52980
L47400 52980
L47460 52950
L47490 52930
L47510 52870
L47510 52730
L47490 52670
L47460 52640
L47400 52620
L47290 52620
L47230 52640
L47210 52670
L47180 52730
" />
<path d="M47710 53210
L47740 53180
L47800 53090
L47820 53040
L47850 52950
L47880 52810
L47880 52700
L47850 52560
L47820 52480
L47800 52420
L47740 52340
L47710 52310
" />
<path d="M48160 52760
L48610 52760
" />
<path d="M49200 52980
L48860 52980
" />
<path d="M49030 52980
L49030 52390
L48980 52480
L48920 52530
L48860 52560
" />
</g>
<g style="fill:#840000; fill-opacity:0.0; 
stroke:#840000; stroke-width:100; stroke-opacity:1; 
stroke-linecap:round; stroke-linejoin:round;">
</g>
<g style="fill:#840000; fill-opacity:0.0; 
stroke:#840000; stroke-width:60; stroke-opacity:1; 
stroke-linecap:round; stroke-linejoin:round;">
<path d="M35440 50990
L77960 50990
" />
</g>
<g style="fill:#840000; fill-opacity:0.0; 
stroke:#840000; stroke-width:100; stroke-opacity:1; 
stroke-linecap:round; stroke-linejoin:round;">
</g>
<g style="fill:#840000; fill-opacity:0.0; 
stroke:#840000; stroke-width:120; stroke-opacity:1; 
stroke-linecap:round; stroke-linejoin:round;">
<text x="69290" y="51910"
textLength="2340" font-size="780" lengthAdjust="spacingAndGlyphs"
text-anchor="start" opacity="0">Rev: </text>
<path d="M69840 51880
L69640 51600
" />
<path d="M69500 51880
L69500 51290
L69730 51290
L69780 51320
L69810 51350
L69840 51400
L69840 51490
L69810 51540
L69780 51570
L69730 51600
L69500 51600
" />
<path d="M70320 51850
L70260 51880
L70150 51880
L70090 51850
L70070 51800
L70070 51570
L70090 51520
L70150 51490
L70260 51490
L70320 51520
L70350 51570
L70350 51630
L70070 51690
" />
<path d="M70540 51490
L70680 51880
L70820 51490
" />
<path d="M71050 51830
L71080 51850
L71050 51880
L71020 51850
L71050 51830
L71050 51880
" />
<path d="M71050 51520
L71080 51540
L71050 51570
L71020 51540
L71050 51520
L71050 51570
" />
</g>
<g style="fill:#840000; fill-opacity:0.0; 
stroke:#840000; stroke-width:100; stroke-opacity:1; 
stroke-linecap:round; stroke-linejoin:round;">
</g>
<g style="fill:#840000; fill-opacity:0.0; 
stroke:#840000; stroke-width:60; stroke-opacity:1; 
stroke-linecap:round; stroke-linejoin:round;">
<text x="35830" y="51910"
textLength="4680" font-size="780" lengthAdjust="spacingAndGlyphs"
text-anchor="start" opacity="0">Size: User</text>
<path d="M35970 51850
L36050 51880
L36190 51880
L36250 51850
L36280 51830
L36300 51770
L36300 51710
L36280 51660
L36250 51630
L36190 51600
L36080 51570
L36020 51540
L36000 51520
L35970 51460
L35970 51400
L36000 51350
L36020 51320
L36080 51290
L36220 51290
L36300 51320
" />
<path d="M36560 51880
L36560 51490
" />
<path d="M36560 51290
L36530 51320
L36560 51350
L36590 51320
L36560 51290
L36560 51350
" />
<path d="M36780 51490
L37090 51490
L36780 51880
L37090 51880
" />
<path d="M37540 51850
L37480 51880
L37370 51880
L37320 51850
L37290 51800
L37290 51570
L37320 51520
L37370 51490
L37480 51490
L37540 51520
L37570 51570
L37570 51630
L37290 51690
" />
<path d="M37820 51830
L37850 51850
L37820 51880
L37790 51850
L37820 51830
L37820 51880
" />
<path d="M37820 51520
L37850 51540
L37820 51570
L37790 51540
L37820 51520
L37820 51570
" />
<path d="M38550 51290
L38550 51770
L38580 51830
L38610 51850
L38660 51880
L38780 51880
L38830 51850
L38860 51830
L38890 51770
L38890 51290
" />
<path d="M39140 51850
L39200 51880
L39310 51880
L39370 51850
L39400 51800
L39400 51770
L39370 51710
L39310 51690
L39230 51690
L39170 51660
L39140 51600
L39140 51570
L39170 51520
L39230 51490
L39310 51490
L39370 51520
" />
<path d="M39870 51850
L39820 51880
L39700 51880
L39650 51850
L39620 51800
L39620 51570
L39650 51520
L39700 51490
L39820 51490
L39870 51520
L39900 51570
L39900 51630
L39620 51690
" />
<path d="M40150 51880
L40150 51490
" />
<path d="M40150 51600
L40180 51540
L40210 51520
L40270 51490
L40320 51490
" />
</g>
<g style="fill:#840000; fill-opacity:0.0; 
stroke:#840000; stroke-width:100; stroke-opacity:1; 
stroke-linecap:round; stroke-linejoin:round;">
</g>
<g style="fill:#840000; fill-opacity:0.0; 
stroke:#840000; stroke-width:60; stroke-opacity:1; 
stroke-linecap:round; stroke-linejoin:round;">
<text x="69290" y="53010"
textLength="3350" font-size="780" lengthAdjust="spacingAndGlyphs"
text-anchor="start" opacity="0">Id: 1/1</text>
<path d="M69460 52980
L69460 52390
" />
<path d="M69990 52980
L69990 52390
" />
<path d="M69990 52950
L69930 52980
L69820 52980
L69760 52950
L69740 52930
L69710 52870
L69710 52700
L69740 52640
L69760 52620
L69820 52590
L69930 52590
L69990 52620
" />
<path d="M70270 52930
L70300 52950
L70270 52980
L70240 52950
L70270 52930
L70270 52980
" />
<path d="M70270 52620
L70300 52640
L70270 52670
L70240 52640
L70270 52620
L70270 52670
" />
<path d="M71310 52980
L70970 52980
" />
<path d="M71140 52980
L71140 52390
L71090 52480
L71030 52530
L70970 52560
" />
<path d="M71980 52360
L71480 53120
" />
<path d="M72490 52980
L72150 52980
" />
<path d="M72320 52980
L72320 52390
L72270 52480
L72210 52530
L72150 52560
" />
</g>
<g style="fill:#840000; fill-opacity:0.0; 
stroke:#840000; stroke-width:100; stroke-opacity:1; 
stroke-linecap:round; stroke-linejoin:round;">
</g>
<g style="fill:#840000; fill-opacity:0.0; 
stroke:#840000; stroke-width:60; stroke-opacity:1; 
stroke-linecap:round; stroke-linejoin:round;">
<path d="M35440 49410
L77960 49410
" />
</g>
<g style="fill:#840000; fill-opacity:0.0; 
stroke:#840000; stroke-width:100; stroke-opacity:1; 
stroke-linecap:round; stroke-linejoin:round;">
</g>
<g style="fill:#840000; fill-opacity:0.0; 
stroke:#840000; stroke-width:160; stroke-opacity:1; 
stroke-linecap:round; stroke-linejoin:round;">
<text x="35830" y="50510"
textLength="9620" font-size="1050" lengthAdjust="spacingAndGlyphs"
text-anchor="start" opacity="0">Title: LED Flash</text>
<path d="M36110 49680
L36560 49680
" />
<path d="M36230 50470
L36330 49680
" />
<path d="M36720 50470
L36790 49950
" />
<path d="M36820 49680
L36780 49720
L36810 49760
L36860 49720
L36820 49680
L36810 49760
" />
<path d="M37050 49950
L37350 49950
" />
<path d="M37200 49680
L37110 50360
L37140 50430
L37210 50470
L37290 50470
" />
<path d="M37660 50470
L37590 50430
L37570 50360
L37650 49680
" />
<path d="M38270 50430
L38190 50470
L38040 50470
L37970 50430
L37940 50360
L37980 50060
L38030 49980
L38110 49950
L38260 49950
L38330 49980
L38360 50060
L38350 50130
L37960 50210
" />
<path d="M38650 50400
L38680 50430
L38640 50470
L38610 50430
L38650 50400
L38640 50470
" />
<path d="M38700 49980
L38740 50020
L38690 50060
L38660 50020
L38700 49980
L38690 50060
" />
<path d="M40000 50470
L39620 50470
L39720 49680
" />
<path d="M40310 50060
L40570 50060
" />
<path d="M40640 50470
L40260 50470
L40360 49680
L40730 49680
" />
<path d="M40970 50470
L41070 49680
L41260 49680
L41370 49720
L41440 49800
L41460 49870
L41480 50020
L41470 50130
L41410 50280
L41360 50360
L41280 50430
L41160 50470
L40970 50470
" />
<path d="M42680 50060
L42420 50060
" />
<path d="M42370 50470
L42470 49680
L42840 49680
" />
<path d="M43160 50470
L43090 50430
L43060 50360
L43140 49680
" />
<path d="M43800 50470
L43850 50060
L43820 49980
L43750 49950
L43600 49950
L43520 49980
" />
<path d="M43800 50430
L43720 50470
L43530 50470
L43460 50430
L43430 50360
L43440 50280
L43490 50210
L43570 50170
L43760 50170
L43840 50130
" />
<path d="M44140 50430
L44210 50470
L44360 50470
L44440 50430
L44490 50360
L44490 50320
L44460 50250
L44390 50210
L44280 50210
L44210 50170
L44180 50100
L44190 50060
L44230 49980
L44310 49950
L44430 49950
L44500 49980
" />
<path d="M44810 50470
L44910 49680
" />
<path d="M45150 50470
L45200 50060
L45170 49980
L45100 49950
L44990 49950
L44910 49980
L44870 50020
" />
</g>
<g style="fill:#840000; fill-opacity:0.0; 
stroke:#840000; stroke-width:100; stroke-opacity:1; 
stroke-linecap:round; stroke-linejoin:round;">
</g>
<g style="fill:#840000; fill-opacity:0.0; 
stroke:#840000; stroke-width:60; stroke-opacity:1; 
stroke-linecap:round; stroke-linejoin:round;">
<text x="35830" y="48990"
textLength="6890" font-size="780" lengthAdjust="spacingAndGlyphs"
text-anchor="start" opacity="0">File: Board.sch</text>
<path d="M36190 48650
L36000 48650
" />
<path d="M36000 48960
L36000 48370
L36280 48370
" />
<path d="M36500 48960
L36500 48570
" />
<path d="M36500 48370
L36470 48400
L36500 48430
L36530 48400
L36500 48370
L36500 48430
" />
<path d="M36870 48960
L36810 48930
L36780 48880
L36780 48370
" />
<path d="M37320 48930
L37260 48960
L37150 48960
L37090 48930
L37060 48880
L37060 48650
L37090 48600
L37150 48570
L37260 48570
L37320 48600
L37340 48650
L37340 48710
L37060 48770
" />
<path d="M37600 48910
L37630 48930
L37600 48960
L37570 48930
L37600 48910
L37600 48960
" />
<path d="M37600 48600
L37630 48620
L37600 48650
L37570 48620
L37600 48600
L37600 48650
" />
<path d="M38520 48650
L38610 48680
L38640 48710
L38660 48770
L38660 48850
L38640 48910
L38610 48930
L38550 48960
L38330 48960
L38330 48370
L38520 48370
L38580 48400
L38610 48430
L38640 48480
L38640 48540
L38610 48600
L38580 48620
L38520 48650
L38330 48650
" />
<path d="M39000 48960
L38950 48930
L38920 48910
L38890 48850
L38890 48680
L38920 48620
L38950 48600
L39000 48570
L39090 48570
L39140 48600
L39170 48620
L39200 48680
L39200 48850
L39170 48910
L39140 48930
L39090 48960
L39000 48960
" />
<path d="M39700 48960
L39700 48650
L39680 48600
L39620 48570
L39510 48570
L39450 48600
" />
<path d="M39700 48930
L39650 48960
L39510 48960
L39450 48930
L39420 48880
L39420 48820
L39450 48770
L39510 48740
L39650 48740
L39700 48710
" />
<path d="M39990 48960
L39990 48570
" />
<path d="M39990 48680
L40010 48620
L40040 48600
L40100 48570
L40150 48570
" />
<path d="M40600 48960
L40600 48370
" />
<path d="M40600 48930
L40550 48960
L40430 48960
L40380 48930
L40350 48910
L40320 48850
L40320 48680
L40350 48620
L40380 48600
L40430 48570
L40550 48570
L40600 48600
" />
<path d="M40880 48910
L40910 48930
L40880 48960
L40860 48930
L40880 48910
L40880 48960
" />
<path d="M41140 48930
L41190 48960
L41310 48960
L41360 48930
L41390 48880
L41390 48850
L41360 48790
L41310 48770
L41220 48770
L41170 48740
L41140 48680
L41140 48650
L41170 48600
L41220 48570
L41310 48570
L41360 48600
" />
<path d="M41900 48930
L41840 48960
L41730 48960
L41670 48930
L41640 48910
L41610 48850
L41610 48680
L41640 48620
L41670 48600
L41730 48570
L41840 48570
L41900 48600
" />
<path d="M42150 48960
L42150 48370
" />
<path d="M42400 48960
L42400 48650
L42370 48600
L42320 48570
L42230 48570
L42180 48600
L42150 48620
" />
</g>
<g style="fill:#840000; fill-opacity:0.0; 
stroke:#840000; stroke-width:100; stroke-opacity:1; 
stroke-linecap:round; stroke-linejoin:round;">
</g>
<g style="fill:#840000; fill-opacity:0.0; 
stroke:#840000; stroke-width:60; stroke-opacity:1; 
stroke-linecap:round; stroke-linejoin:round;">
<path d="M35440 47050
L77960 47050
" />
</g>
<g style="fill:#840000; fill-opacity:0.0; 
stroke:#840000; stroke-width:100; stroke-opacity:1; 
stroke-linecap:round; stroke-linejoin:round;">
</g>
<g style="fill:#840000; fill-opacity:0.0; 
stroke:#840000; stroke-width:60; stroke-opacity:1; 
stroke-linecap:round; stroke-linejoin:round;">
<text x="35830" y="47930"
textLength="3850" font-size="780" lengthAdjust="spacingAndGlyphs"
text-anchor="start" opacity="0">Sheet: /</text>
<path d="M35970 47870
L36050 47900
L36190 47900
L36250 47870
L36280 47850
L36300 47790
L36300 47730
L36280 47680
L36250 47650
L36190 47620
L36080 47590
L36020 47560
L36000 47540
L35970 47480
L35970 47420
L36000 47370
L36020 47340
L36080 47310
L36220 47310
L36300 47340
" />
<path d="M36560 47900
L36560 47310
" />
<path d="M36810 47900
L36810 47590
L36780 47540
L36730 47510
L36640 47510
L36590 47540
L36560 47560
" />
<path d="M37320 47870
L37260 47900
L37150 47900
L37090 47870
L37060 47820
L37060 47590
L37090 47540
L37150 47510
L37260 47510
L37320 47540
L37340 47590
L37340 47650
L37060 47710
" />
<path d="M37820 47870
L37770 47900
L37650 47900
L37600 47870
L37570 47820
L37570 47590
L37600 47540
L37650 47510
L37770 47510
L37820 47540
L37850 47590
L37850 47650
L37570 47710
" />
<path d="M38020 47510
L38240 47510
" />
<path d="M38100 47310
L38100 47820
L38130 47870
L38190 47900
L38240 47900
" />
<path d="M38440 47850
L38470 47870
L38440 47900
L38410 47870
L38440 47850
L38440 47900
" />
<path d="M38440 47540
L38470 47560
L38440 47590
L38410 47560
L38440 47540
L38440 47590
" />
<path d="M39590 47280
L39090 48040
" />
</g>
<g style="fill:#840000; fill-opacity:0.0; 
stroke:#840000; stroke-width:100; stroke-opacity:1; 
stroke-linecap:round; stroke-linejoin:round;">
</g>
<g style="fill:#840000; fill-opacity:0.0; 
stroke:#840000; stroke-width:60; stroke-opacity:1; 
stroke-linecap:round; stroke-linejoin:round;">
<path d="M43310 50990
L43310 52170
" />
</g>
<g style="fill:#840000; fill-opacity:0.0; 
stroke:#840000; stroke-width:100; stroke-opacity:1; 
stroke-linecap:round; stroke-linejoin:round;">
</g>
<g style="fill:#840000; fill-opacity:0.0; 
stroke:#840000; stroke-width:60; stroke-opacity:1; 
stroke-linecap:round; stroke-linejoin:round;">
<path d="M68510 50990
L68510 53550
" />
</g>
<g style="fill:#840000; fill-opacity:0.0; 
stroke:#840000; stroke-width:0; stroke-opacity:1; 
stroke-linecap:round; stroke-linejoin:round;">
<g >
</g>
<g style="fill:#840000; fill-opacity:0.0; 
stroke:#840000; stroke-width:100; stroke-opacity:1; 
stroke-linecap:round; stroke-linejoin:round;">
<path style="fill:#840000; fill-opacity:0.0; 
stroke:#840000; stroke-width:100; stroke-opacity:1; 
stroke-linecap:round; stroke-linejoin:round;fill:none"
d="M 31500,36000
31500,35000
" /> 
</g>
<g style="fill:#840000; fill-opacity:0.0; 
stroke:#840000; stroke-width:60; stroke-opacity:1; 
stroke-linecap:round; stroke-linejoin:round;">
<path style="fill:#840000; fill-opacity:0.0; 
stroke:#840000; stroke-width:60; stroke-opacity:1; 
stroke-linecap:round; stroke-linejoin:round;fill:none"
d="M 31500,35500
32500,35500
" /> 
</g>
<g style="fill:#840000; fill-opacity:0.0; 
stroke:#840000; stroke-width:100; stroke-opacity:1; 
stroke-linecap:round; stroke-linejoin:round;">
<path style="fill:#840000; fill-opacity:0.0; 
stroke:#840000; stroke-width:100; stroke-opacity:1; 
stroke-linecap:round; stroke-linejoin:round;fill:none"
d="M 32500,36000
32500,35000
31500,35500
Z" /> 
</g>
<g style="fill:#840000; fill-opacity:0.0; 
stroke:#840000; stroke-width:60; stroke-opacity:1; 
stroke-linecap:round; stroke-linejoin:round;">
<path style="fill:#840000; fill-opacity:0.0; 
stroke:#840000; stroke-width:60; stroke-opacity:1; 
stroke-linecap:round; stroke-linejoin:round;fill:none"
d="M 30800,35800
30200,36400
30500,36400
30200,36400
30200,36100
" /> 
<path style="fill:#840000; fill-opacity:0.0; 
stroke:#840000; stroke-width:60; stroke-opacity:1; 
stroke-linecap:round; stroke-linejoin:round;fill:none"
d="M 31300,35800
30700,36400
31000,36400
30700,36400
30700,36100
" /> 
<path d="M31500 35500
L30500 35500
" />
<path d="M32500 35500
L33500 35500
" />
</g>
<g style="fill:#008484; fill-opacity:0.0; 
stroke:#008484; stroke-width:60; stroke-opacity:1; 
stroke-linecap:round; stroke-linejoin:round;">
<text x="31930" y="33600"
textLength="1040" font-size="660" lengthAdjust="spacingAndGlyphs"
text-anchor="middle" opacity="0">D1</text>
<path d="M31560 33570
L31560 33070
L31680 33070
L31750 33100
L31790 33140
L31820 33190
L31840 33290
L31840 33360
L31820 33450
L31790 33500
L31750 33550
L31680 33570
L31560 33570
" />
<path d="M32320 33570
L32030 33570
" />
<path d="M32180 33570
L32180 33070
L32130 33140
L32080 33190
L32030 33210
" />
<text x="31930" y="34510"
textLength="1420" font-size="660" lengthAdjust="spacingAndGlyphs"
text-anchor="middle" opacity="0">LED</text>
<path d="M31600 34480
L31370 34480
L31370 33980
" />
<path d="M31770 34220
L31940 34220
" />
<path d="M32010 34480
L31770 34480
L31770 33980
L32010 33980
" />
<path d="M32220 34480
L32220 33980
L32340 33980
L32410 34010
L32460 34050
L32480 34100
L32510 34200
L32510 34270
L32480 34360
L32460 34410
L32410 34460
L32340 34480
L32220 34480
" />
</g>
</g>
<g style="fill:#008484; fill-opacity:0.0; 
stroke:#008484; stroke-width:0; stroke-opacity:1; 
stroke-linecap:round; stroke-linejoin:round;">
<g >
</g>
<g style="fill:#840000; fill-opacity:0.0; 
stroke:#840000; stroke-width:0; stroke-opacity:1; 
stroke-linecap:round; stroke-linejoin:round;">
</g>
<g style="fill:#840000; fill-opacity:0.0; 
stroke:#840000; stroke-width:60; stroke-opacity:1; 
stroke-linecap:round; stroke-linejoin:round;">
<path style="fill:#840000; fill-opacity:0.0; 
stroke:#840000; stroke-width:60; stroke-opacity:1; 
stroke-linecap:round; stroke-linejoin:round;fill:none"
d="M 44700,10500
45000,10000
" /> 
<path style="fill:#840000; fill-opacity:0.0; 
stroke:#840000; stroke-width:60; stroke-opacity:1; 
stroke-linecap:round; stroke-linejoin:round;fill:none"
d="M 45000,11000
45000,10000
" /> 
<path style="fill:#840000; fill-opacity:0.0; 
stroke:#840000; stroke-width:60; stroke-opacity:1; 
stroke-linecap:round; stroke-linejoin:round;fill:none"
d="M 45000,10000
45300,10500
" /> 
</g>
<g style="fill:#008484; fill-opacity:0.0; 
stroke:#008484; stroke-width:60; stroke-opacity:1; 
stroke-linecap:round; stroke-linejoin:round;">
<text x="45150" y="9540"
textLength="1580" font-size="660" lengthAdjust="spacingAndGlyphs"
text-anchor="middle" opacity="0">+5V</text>
<path d="M44500 9320
L44880 9320
" />
<path d="M44690 9510
L44690 9130
" />
<path d="M45360 9010
L45120 9010
L45100 9250
L45120 9230
L45170 9200
L45290 9200
L45340 9230
L45360 9250
L45380 9300
L45380 9420
L45360 9460
L45340 9490
L45290 9510
L45170 9510
L45120 9490
L45100 9460
" />
<path d="M45530 9010
L45690 9510
L45860 9010
" />
</g>
</g>
<g style="fill:#008484; fill-opacity:0.0; 
stroke:#008484; stroke-width:0; stroke-opacity:1; 
stroke-linecap:round; stroke-linejoin:round;">
<g >
</g>
<g style="fill:#840000; fill-opacity:0.0; 
stroke:#840000; stroke-width:0; stroke-opacity:1; 
stroke-linecap:round; stroke-linejoin:round;">
</g>
<g style="fill:#840000; fill-opacity:0.0; 
stroke:#840000; stroke-width:60; stroke-opacity:1; 
stroke-linecap:round; stroke-linejoin:round;">
<path style="fill:#840000; fill-opacity:0.0; 
stroke:#840000; stroke-width:60; stroke-opacity:1; 
stroke-linecap:round; stroke-linejoin:round;fill:none"
d="M 38700,33500
39000,33000
" /> 
<path style="fill:#840000; fill-opacity:0.0; 
stroke:#840000; stroke-width:60; stroke-opacity:1; 
stroke-linecap:round; stroke-linejoin:round;fill:none"
d="M 39000,34000
39000,33000
" /> 
<path style="fill:#840000; fill-opacity:0.0; 
stroke:#840000; stroke-width:60; stroke-opacity:1; 
stroke-linecap:round; stroke-linejoin:round;fill:none"
d="M 39000,33000
39300,33500
" /> 
</g>
<g style="fill:#008484; fill-opacity:0.0; 
stroke:#008484; stroke-width:60; stroke-opacity:1; 
stroke-linecap:round; stroke-linejoin:round;">
<text x="39150" y="32540"
textLength="1580" font-size="660" lengthAdjust="spacingAndGlyphs"
text-anchor="middle" opacity="0">+5V</text>
<path d="M38500 32320
L38880 32320
" />
<path d="M38690 32510
L38690 32130
" />
<path d="M39360 32010
L39120 32010
L39100 32250
L39120 32230
L39170 32200
L39290 32200
L39340 32230
L39360 32250
L39380 32300
L39380 32420
L39360 32460
L39340 32490
L39290 32510
L39170 32510
L39120 32490
L39100 32460
" />
<path d="M39530 32010
L39690 32510
L39860 32010
" />
</g>
</g>
<g style="fill:#008484; fill-opacity:0.0; 
stroke:#008484; stroke-width:0; stroke-opacity:1; 
stroke-linecap:round; stroke-linejoin:round;">
<g >
</g>
<g style="fill:#840000; fill-opacity:0.0; 
stroke:#840000; stroke-width:0; stroke-opacity:1; 
stroke-linecap:round; stroke-linejoin:round;">
</g>
<g style="fill:#840000; fill-opacity:0.0; 
stroke:#840000; stroke-width:60; stroke-opacity:1; 
stroke-linecap:round; stroke-linejoin:round;">
<path style="fill:#840000; fill-opacity:0.0; 
stroke:#840000; stroke-width:60; stroke-opacity:1; 
stroke-linecap:round; stroke-linejoin:round;fill:none"
d="M 20000,37000
20000,37500
20500,37500
20000,38000
19500,37500
20000,37500
" /> 
</g>
<g style="fill:#008484; fill-opacity:0.0; 
stroke:#008484; stroke-width:60; stroke-opacity:1; 
stroke-linecap:round; stroke-linejoin:round;">
<text x="20050" y="39000"
textLength="1580" font-size="660" lengthAdjust="spacingAndGlyphs"
text-anchor="middle" opacity="0">GND</text>
<path d="M19660 38500
L19620 38470
L19550 38470
L19470 38500
L19430 38540
L19400 38590
L19380 38690
L19380 38760
L19400 38850
L19430 38900
L19470 38950
L19550 38970
L19590 38970
L19660 38950
L19690 38920
L19690 38760
L19590 38760
" />
<path d="M19900 38970
L19900 38470
L20190 38970
L20190 38470
" />
<path d="M20430 38970
L20430 38470
L20550 38470
L20620 38500
L20660 38540
L20690 38590
L20710 38690
L20710 38760
L20690 38850
L20660 38900
L20620 38950
L20550 38970
L20430 38970
" />
</g>
</g>
<g style="fill:#008484; fill-opacity:0.0; 
stroke:#008484; stroke-width:0; stroke-opacity:1; 
stroke-linecap:round; stroke-linejoin:round;">
<g >
</g>
<g style="fill:#840000; fill-opacity:0.0; 
stroke:#840000; stroke-width:0; stroke-opacity:1; 
stroke-linecap:round; stroke-linejoin:round;">
</g>
<g style="fill:#840000; fill-opacity:0.0; 
stroke:#840000; stroke-width:60; stroke-opacity:1; 
stroke-linecap:round; stroke-linejoin:round;">
<path style="fill:#840000; fill-opacity:0.0; 
stroke:#840000; stroke-width:60; stroke-opacity:1; 
stroke-linecap:round; stroke-linejoin:round;fill:none"
d="M 45000,22000
45000,22500
45500,22500
45000,23000
44500,22500
45000,22500
" /> 
</g>
<g style="fill:#008484; fill-opacity:0.0; 
stroke:#008484; stroke-width:60; stroke-opacity:1; 
stroke-linecap:round; stroke-linejoin:round;">
<text x="45050" y="24000"
textLength="1580" font-size="660" lengthAdjust="spacingAndGlyphs"
text-anchor="middle" opacity="0">GND</text>
<path d="M44660 23500
L44620 23470
L44550 23470
L44470 23500
L44430 23540
L44400 23590
L44380 23690
L44380 23760
L44400 23850
L44430 23900
L44470 23950
L44550 23970
L44590 23970
L44660 23950
L44690 23920
L44690 23760
L44590 23760
" />
<path d="M44900 23970
L44900 23470
L45190 23970
L45190 23470
" />
<path d="M45430 23970
L45430 23470
L45550 23470
L45620 23500
L45660 23540
L45690 23590
L45710 23690
L45710 23760
L45690 23850
L45660 23900
L45620 23950
L45550 23970
L45430 23970
" />
</g>
</g>
<g style="fill:#008484; fill-opacity:0.0; 
stroke:#008484; stroke-width:0; stroke-opacity:1; 
stroke-linecap:round; stroke-linejoin:round;">
<g >
</g>
<g style="fill:#840000; fill-opacity:0.0; 
stroke:#840000; stroke-width:0; stroke-opacity:1; 
stroke-linecap:round; stroke-linejoin:round;">
</g>
<g style="fill:#840000; fill-opacity:0.0; 
stroke:#840000; stroke-width:60; stroke-opacity:1; 
stroke-linecap:round; stroke-linejoin:round;">
<rect x="34500" y="13500" width="4500" height="6000" rx="0" />
<path d="M39000 14000
L40000 14000
" />
</g>
<g style="fill:#008484; fill-opacity:0.0; 
stroke:#008484; stroke-width:60; stroke-opacity:1; 
stroke-linecap:round; stroke-linejoin:round;">
<text x="38600" y="14250"
textLength="960" font-size="660" lengthAdjust="spacingAndGlyphs"
text-anchor="end" opacity="0">5V</text>
<path d="M38020 13720
L37780 13720
L37760 13960
L37780 13940
L37830 13910
L37950 13910
L37990 13940
L38020 13960
L38040 14010
L38040 14130
L38020 14170
L37990 14200
L37950 14220
L37830 14220
L37780 14200
L37760 14170
" />
<path d="M38180 13720
L38350 14220
L38520 13720
" />
</g>
<g style="fill:#840000; fill-opacity:0.0; 
stroke:#840000; stroke-width:60; stroke-opacity:1; 
stroke-linecap:round; stroke-linejoin:round;">
<text x="39500" y="13900"
textLength="540" font-size="660" lengthAdjust="spacingAndGlyphs"
text-anchor="middle" opacity="0">1</text>
<path d="M39640 13870
L39350 13870
" />
<path d="M39500 13870
L39500 13370
L39450 13440
L39400 13490
L39350 13510
" />
<path d="M39000 19000
L40000 19000
" />
</g>
<g style="fill:#008484; fill-opacity:0.0; 
stroke:#008484; stroke-width:60; stroke-opacity:1; 
stroke-linecap:round; stroke-linejoin:round;">
<text x="38600" y="19250"
textLength="1580" font-size="660" lengthAdjust="spacingAndGlyphs"
text-anchor="end" opacity="0">GND</text>
<path d="M37420 18750
L37370 18720
L37300 18720
L37230 18750
L37180 18790
L37160 18840
L37140 18940
L37140 19010
L37160 19100
L37180 19150
L37230 19200
L37300 19220
L37350 19220
L37420 19200
L37450 19170
L37450 19010
L37350 19010
" />
<path d="M37660 19220
L37660 18720
L37950 19220
L37950 18720
" />
<path d="M38180 19220
L38180 18720
L38300 18720
L38370 18750
L38420 18790
L38450 18840
L38470 18940
L38470 19010
L38450 19100
L38420 19150
L38370 19200
L38300 19220
L38180 19220
" />
</g>
<g style="fill:#840000; fill-opacity:0.0; 
stroke:#840000; stroke-width:60; stroke-opacity:1; 
stroke-linecap:round; stroke-linejoin:round;">
<text x="39500" y="18900"
textLength="540" font-size="660" lengthAdjust="spacingAndGlyphs"
text-anchor="middle" opacity="0">2</text>
<path d="M39350 18420
L39380 18400
L39420 18370
L39540 18370
L39590 18400
L39610 18420
L39640 18470
L39640 18510
L39610 18590
L39330 18870
L39640 18870
" />
<path d="M39000 16500
L40000 16500
" />
</g>
<g style="fill:#008484; fill-opacity:0.0; 
stroke:#008484; stroke-width:60; stroke-opacity:1; 
stroke-linecap:round; stroke-linejoin:round;">
<text x="38600" y="16750"
textLength="1250" font-size="660" lengthAdjust="spacingAndGlyphs"
text-anchor="end" opacity="0">VIN</text>
<path d="M37420 16220
L37590 16720
L37760 16220
" />
<path d="M37920 16720
L37920 16220
" />
<path d="M38160 16720
L38160 16220
L38450 16720
L38450 16220
" />
</g>
<g style="fill:#840000; fill-opacity:0.0; 
stroke:#840000; stroke-width:60; stroke-opacity:1; 
stroke-linecap:round; stroke-linejoin:round;">
<text x="39500" y="16400"
textLength="540" font-size="660" lengthAdjust="spacingAndGlyphs"
text-anchor="middle" opacity="0">3</text>
<path d="M39330 15870
L39640 15870
L39470 16060
L39540 16060
L39590 16090
L39610 16110
L39640 16160
L39640 16280
L39610 16320
L39590 16350
L39540 16370
L39400 16370
L39350 16350
L39330 16320
" />
<path d="M34500 14000
L33500 14000
" />
</g>
<g style="fill:#008484; fill-opacity:0.0; 
stroke:#008484; stroke-width:60; stroke-opacity:1; 
stroke-linecap:round; stroke-linejoin:round;">
<text x="34900" y="14250"
textLength="1040" font-size="660" lengthAdjust="spacingAndGlyphs"
text-anchor="start" opacity="0">P0</text>
<path d="M35040 14220
L35040 13720
L35230 13720
L35280 13750
L35310 13770
L35330 13820
L35330 13890
L35310 13940
L35280 13960
L35230 13980
L35040 13980
" />
<path d="M35640 13720
L35690 13720
L35730 13750
L35760 13770
L35780 13820
L35810 13910
L35810 14030
L35780 14130
L35760 14170
L35730 14200
L35690 14220
L35640 14220
L35590 14200
L35570 14170
L35540 14130
L35520 14030
L35520 13910
L35540 13820
L35570 13770
L35590 13750
L35640 13720
" />
</g>
<g style="fill:#840000; fill-opacity:0.0; 
stroke:#840000; stroke-width:60; stroke-opacity:1; 
stroke-linecap:round; stroke-linejoin:round;">
<text x="34000" y="13900"
textLength="540" font-size="660" lengthAdjust="spacingAndGlyphs"
text-anchor="middle" opacity="0">4</text>
<path d="M34090 13540
L34090 13870
" />
<path d="M33970 13350
L33850 13700
L34160 13700
" />
<path d="M34500 15000
L33500 15000
" />
</g>
<g style="fill:#008484; fill-opacity:0.0; 
stroke:#008484; stroke-width:60; stroke-opacity:1; 
stroke-linecap:round; stroke-linejoin:round;">
<text x="34900" y="15250"
textLength="1040" font-size="660" lengthAdjust="spacingAndGlyphs"
text-anchor="start" opacity="0">P1</text>
<path d="M35040 15220
L35040 14720
L35230 14720
L35280 14750
L35310 14770
L35330 14820
L35330 14890
L35310 14940
L35280 14960
L35230 14980
L35040 14980
" />
<path d="M35810 15220
L35520 15220
" />
<path d="M35660 15220
L35660 14720
L35620 14790
L35570 14840
L35520 14860
" />
</g>
<g style="fill:#840000; fill-opacity:0.0; 
stroke:#840000; stroke-width:60; stroke-opacity:1; 
stroke-linecap:round; stroke-linejoin:round;">
<text x="34000" y="14900"
textLength="540" font-size="660" lengthAdjust="spacingAndGlyphs"
text-anchor="middle" opacity="0">5</text>
<path d="M34110 14370
L33880 14370
L33850 14610
L33880 14590
L33920 14560
L34040 14560
L34090 14590
L34110 14610
L34140 14660
L34140 14780
L34110 14820
L34090 14850
L34040 14870
L33920 14870
L33880 14850
L33850 14820
" />
<path d="M34500 16000
L33500 16000
" />
</g>
<g style="fill:#008484; fill-opacity:0.0; 
stroke:#008484; stroke-width:60; stroke-opacity:1; 
stroke-linecap:round; stroke-linejoin:round;">
<text x="34900" y="16250"
textLength="1040" font-size="660" lengthAdjust="spacingAndGlyphs"
text-anchor="start" opacity="0">P2</text>
<path d="M35040 16220
L35040 15720
L35230 15720
L35280 15750
L35310 15770
L35330 15820
L35330 15890
L35310 15940
L35280 15960
L35230 15980
L35040 15980
" />
<path d="M35520 15770
L35540 15750
L35590 15720
L35710 15720
L35760 15750
L35780 15770
L35810 15820
L35810 15860
L35780 15940
L35500 16220
L35810 16220
" />
</g>
<g style="fill:#840000; fill-opacity:0.0; 
stroke:#840000; stroke-width:60; stroke-opacity:1; 
stroke-linecap:round; stroke-linejoin:round;">
<text x="34000" y="15900"
textLength="540" font-size="660" lengthAdjust="spacingAndGlyphs"
text-anchor="middle" opacity="0">6</text>
<path d="M34090 15370
L34000 15370
L33950 15400
L33920 15420
L33880 15490
L33850 15590
L33850 15780
L33880 15820
L33900 15850
L33950 15870
L34040 15870
L34090 15850
L34110 15820
L34140 15780
L34140 15660
L34110 15610
L34090 15590
L34040 15560
L33950 15560
L33900 15590
L33880 15610
L33850 15660
" />
<path d="M34500 17000
L33500 17000
" />
</g>
<g style="fill:#008484; fill-opacity:0.0; 
stroke:#008484; stroke-width:60; stroke-opacity:1; 
stroke-linecap:round; stroke-linejoin:round;">
<text x="34900" y="17250"
textLength="1040" font-size="660" lengthAdjust="spacingAndGlyphs"
text-anchor="start" opacity="0">P3</text>
<path d="M35040 17220
L35040 16720
L35230 16720
L35280 16750
L35310 16770
L35330 16820
L35330 16890
L35310 16940
L35280 16960
L35230 16980
L35040 16980
" />
<path d="M35500 16720
L35810 16720
L35640 16910
L35710 16910
L35760 16940
L35780 16960
L35810 17010
L35810 17130
L35780 17170
L35760 17200
L35710 17220
L35570 17220
L35520 17200
L35500 17170
" />
</g>
<g style="fill:#840000; fill-opacity:0.0; 
stroke:#840000; stroke-width:60; stroke-opacity:1; 
stroke-linecap:round; stroke-linejoin:round;">
<text x="34000" y="16900"
textLength="540" font-size="660" lengthAdjust="spacingAndGlyphs"
text-anchor="middle" opacity="0">7</text>
<path d="M33830 16370
L34160 16370
L33950 16870
" />
<path d="M34500 18000
L33500 18000
" />
</g>
<g style="fill:#008484; fill-opacity:0.0; 
stroke:#008484; stroke-width:60; stroke-opacity:1; 
stroke-linecap:round; stroke-linejoin:round;">
<text x="34900" y="18250"
textLength="1040" font-size="660" lengthAdjust="spacingAndGlyphs"
text-anchor="start" opacity="0">P4</text>
<path d="M35040 18220
L35040 17720
L35230 17720
L35280 17750
L35310 17770
L35330 17820
L35330 17890
L35310 17940
L35280 17960
L35230 17980
L35040 17980
" />
<path d="M35760 17890
L35760 18220
" />
<path d="M35640 17700
L35520 18050
L35830 18050
" />
</g>
<g style="fill:#840000; fill-opacity:0.0; 
stroke:#840000; stroke-width:60; stroke-opacity:1; 
stroke-linecap:round; stroke-linejoin:round;">
<text x="34000" y="17900"
textLength="540" font-size="660" lengthAdjust="spacingAndGlyphs"
text-anchor="middle" opacity="0">8</text>
<path d="M33950 17590
L33900 17560
L33880 17540
L33850 17490
L33850 17470
L33880 17420
L33900 17400
L33950 17370
L34040 17370
L34090 17400
L34110 17420
L34140 17470
L34140 17490
L34110 17540
L34090 17560
L34040 17590
L33950 17590
L33900 17610
L33880 17630
L33850 17680
L33850 17780
L33880 17820
L33900 17850
L33950 17870
L34040 17870
L34090 17850
L34110 17820
L34140 17780
L34140 17680
L34110 17630
L34090 17610
L34040 17590
" />
<path d="M34500 19000
L33500 19000
" />
</g>
<g style="fill:#008484; fill-opacity:0.0; 
stroke:#008484; stroke-width:60; stroke-opacity:1; 
stroke-linecap:round; stroke-linejoin:round;">
<text x="34900" y="19250"
textLength="1040" font-size="660" lengthAdjust="spacingAndGlyphs"
text-anchor="start" opacity="0">P5</text>
<path d="M35040 19220
L35040 18720
L35230 18720
L35280 18750
L35310 18770
L35330 18820
L35330 18890
L35310 18940
L35280 18960
L35230 18980
L35040 18980
" />
<path d="M35780 18720
L35540 18720
L35520 18960
L35540 18940
L35590 18910
L35710 18910
L35760 18940
L35780 18960
L35810 19010
L35810 19130
L35780 19170
L35760 19200
L35710 19220
L35590 19220
L35540 19200
L35520 19170
" />
</g>
<g style="fill:#840000; fill-opacity:0.0; 
stroke:#840000; stroke-width:60; stroke-opacity:1; 
stroke-linecap:round; stroke-linejoin:round;">
<text x="34000" y="18900"
textLength="540" font-size="660" lengthAdjust="spacingAndGlyphs"
text-anchor="middle" opacity="0">9</text>
<path d="M33900 18870
L34000 18870
L34040 18850
L34070 18820
L34110 18750
L34140 18660
L34140 18470
L34110 18420
L34090 18400
L34040 18370
L33950 18370
L33900 18400
L33880 18420
L33850 18470
L33850 18590
L33880 18630
L33900 18660
L33950 18680
L34040 18680
L34090 18660
L34110 18630
L34140 18590
" />
</g>
<g style="fill:#008484; fill-opacity:0.0; 
stroke:#008484; stroke-width:60; stroke-opacity:1; 
stroke-linecap:round; stroke-linejoin:round;">
<text x="36750" y="12020"
textLength="960" font-size="660" lengthAdjust="spacingAndGlyphs"
text-anchor="middle" opacity="0">A1</text>
<path d="M36390 11850
L36630 11850
" />
<path d="M36340 11990
L36510 11490
L36670 11990
" />
<path d="M37100 11990
L36820 11990
" />
<path d="M36960 11990
L36960 11490
L36910 11560
L36860 11610
L36820 11630
" />
<text x="36750" y="12930"
textLength="11610" font-size="660" lengthAdjust="spacingAndGlyphs"
text-anchor="middle" opacity="0">Digispark_ATTiny85_Micro-USB</text>
<path d="M31090 12900
L31090 12400
L31210 12400
L31280 12430
L31330 12470
L31350 12520
L31380 12620
L31380 12690
L31350 12780
L31330 12830
L31280 12880
L31210 12900
L31090 12900
" />
<path d="M31590 12900
L31590 12570
" />
<path d="M31590 12400
L31570 12430
L31590 12450
L31610 12430
L31590 12400
L31590 12450
" />
<path d="M32040 12570
L32040 12970
L32020 13020
L32000 13040
L31950 13070
L31880 13070
L31830 13040
" />
<path d="M32040 12880
L32000 12900
L31900 12900
L31850 12880
L31830 12850
L31800 12810
L31800 12660
L31830 12620
L31850 12590
L31900 12570
L32000 12570
L32040 12590
" />
<path d="M32280 12900
L32280 12570
" />
<path d="M32280 12400
L32260 12430
L32280 12450
L32300 12430
L32280 12400
L32280 12450
" />
<path d="M32500 12880
L32540 12900
L32640 12900
L32690 12880
L32710 12830
L32710 12810
L32690 12760
L32640 12730
L32570 12730
L32520 12710
L32500 12660
L32500 12640
L32520 12590
L32570 12570
L32640 12570
L32690 12590
" />
<path d="M32920 12570
L32920 13070
" />
<path d="M32920 12590
L32970 12570
L33070 12570
L33110 12590
L33140 12620
L33160 12660
L33160 12810
L33140 12850
L33110 12880
L33070 12900
L32970 12900
L32920 12880
" />
<path d="M33590 12900
L33590 12640
L33570 12590
L33520 12570
L33420 12570
L33380 12590
" />
<path d="M33590 12880
L33540 12900
L33420 12900
L33380 12880
L33350 12830
L33350 12780
L33380 12730
L33420 12710
L33540 12710
L33590 12690
" />
<path d="M33830 12900
L33830 12570
" />
<path d="M33830 12660
L33850 12620
L33880 12590
L33920 12570
L33970 12570
" />
<path d="M34140 12900
L34140 12400
" />
<path d="M34190 12710
L34330 12900
" />
<path d="M34330 12570
L34140 12760
" />
<path d="M34420 12950
L34800 12950
" />
<path d="M34900 12760
L35140 12760
" />
<path d="M34850 12900
L35020 12400
L35190 12900
" />
<path d="M35280 12400
L35570 12400
" />
<path d="M35420 12900
L35420 12400
" />
<path d="M35660 12400
L35950 12400
" />
<path d="M35800 12900
L35800 12400
" />
<path d="M36110 12900
L36110 12570
" />
<path d="M36110 12400
L36090 12430
L36110 12450
L36140 12430
L36110 12400
L36110 12450
" />
<path d="M36350 12570
L36350 12900
" />
<path d="M36350 12620
L36380 12590
L36420 12570
L36500 12570
L36540 12590
L36570 12640
L36570 12900
" />
<path d="M36760 12570
L36880 12900
" />
<path d="M37000 12570
L36880 12900
L36830 13020
L36800 13040
L36760 13070
" />
<path d="M37260 12620
L37210 12590
L37190 12570
L37160 12520
L37160 12500
L37190 12450
L37210 12430
L37260 12400
L37350 12400
L37400 12430
L37420 12450
L37450 12500
L37450 12520
L37420 12570
L37400 12590
L37350 12620
L37260 12620
L37210 12640
L37190 12660
L37160 12710
L37160 12810
L37190 12850
L37210 12880
L37260 12900
L37350 12900
L37400 12880
L37420 12850
L37450 12810
L37450 12710
L37420 12660
L37400 12640
L37350 12620
" />
<path d="M37900 12400
L37660 12400
L37640 12640
L37660 12620
L37710 12590
L37830 12590
L37880 12620
L37900 12640
L37920 12690
L37920 12810
L37900 12850
L37880 12880
L37830 12900
L37710 12900
L37660 12880
L37640 12850
" />
<path d="M38020 12950
L38400 12950
" />
<path d="M38520 12900
L38520 12400
L38690 12760
L38850 12400
L38850 12900
" />
<path d="M39090 12900
L39090 12570
" />
<path d="M39090 12400
L39070 12430
L39090 12450
L39110 12430
L39090 12400
L39090 12450
" />
<path d="M39540 12880
L39500 12900
L39400 12900
L39350 12880
L39330 12850
L39300 12810
L39300 12660
L39330 12620
L39350 12590
L39400 12570
L39500 12570
L39540 12590
" />
<path d="M39760 12900
L39760 12570
" />
<path d="M39760 12660
L39780 12620
L39800 12590
L39850 12570
L39900 12570
" />
<path d="M40140 12900
L40090 12880
L40070 12850
L40040 12810
L40040 12660
L40070 12620
L40090 12590
L40140 12570
L40210 12570
L40260 12590
L40280 12620
L40300 12660
L40300 12810
L40280 12850
L40260 12880
L40210 12900
L40140 12900
" />
<path d="M40520 12710
L40900 12710
" />
<path d="M41140 12400
L41140 12810
L41160 12850
L41190 12880
L41230 12900
L41330 12900
L41380 12880
L41400 12850
L41420 12810
L41420 12400
" />
<path d="M41640 12880
L41710 12900
L41830 12900
L41880 12880
L41900 12850
L41920 12810
L41920 12760
L41900 12710
L41880 12690
L41830 12660
L41730 12640
L41690 12620
L41660 12590
L41640 12540
L41640 12500
L41660 12450
L41690 12430
L41730 12400
L41850 12400
L41920 12430
" />
<path d="M42300 12640
L42380 12660
L42400 12690
L42420 12730
L42420 12810
L42400 12850
L42380 12880
L42330 12900
L42140 12900
L42140 12400
L42300 12400
L42350 12430
L42380 12450
L42400 12500
L42400 12540
L42380 12590
L42350 12620
L42300 12640
L42140 12640
" />
</g>
</g>
<g style="fill:#008484; fill-opacity:0.0; 
stroke:#008484; stroke-width:0; stroke-opacity:1; 
stroke-linecap:round; stroke-linejoin:round;">
<g >
</g>
<g style="fill:#840000; fill-opacity:0.0; 
stroke:#840000; stroke-width:0; stroke-opacity:1; 
stroke-linecap:round; stroke-linejoin:round;">
</g>
<g style="fill:#840000; fill-opacity:0.0; 
stroke:#840000; stroke-width:60; stroke-opacity:1; 
stroke-linecap:round; stroke-linejoin:round;">
<path style="fill:#840000; fill-opacity:0.0; 
stroke:#840000; stroke-width:60; stroke-opacity:1; 
stroke-linecap:round; stroke-linejoin:round;fill:none"
d="M 12000,15000
12000,15500
12500,15500
12000,16000
11500,15500
12000,15500
" /> 
</g>
<g style="fill:#008484; fill-opacity:0.0; 
stroke:#008484; stroke-width:60; stroke-opacity:1; 
stroke-linecap:round; stroke-linejoin:round;">
<text x="12050" y="17000"
textLength="1580" font-size="660" lengthAdjust="spacingAndGlyphs"
text-anchor="middle" opacity="0">GND</text>
<path d="M11660 16500
L11620 16470
L11550 16470
L11470 16500
L11430 16540
L11400 16590
L11380 16690
L11380 16760
L11400 16850
L11430 16900
L11470 16950
L11550 16970
L11590 16970
L11660 16950
L11690 16920
L11690 16760
L11590 16760
" />
<path d="M11900 16970
L11900 16470
L12190 16970
L12190 16470
" />
<path d="M12430 16970
L12430 16470
L12550 16470
L12620 16500
L12660 16540
L12690 16590
L12710 16690
L12710 16760
L12690 16850
L12660 16900
L12620 16950
L12550 16970
L12430 16970
" />
</g>
</g>
<g style="fill:#008484; fill-opacity:0.0; 
stroke:#008484; stroke-width:0; stroke-opacity:1; 
stroke-linecap:round; stroke-linejoin:round;">
<g >
</g>
<g style="fill:#840000; fill-opacity:0.0; 
stroke:#840000; stroke-width:0; stroke-opacity:1; 
stroke-linecap:round; stroke-linejoin:round;">
</g>
<g style="fill:#840000; fill-opacity:0.0; 
stroke:#840000; stroke-width:60; stroke-opacity:1; 
stroke-linecap:round; stroke-linejoin:round;">
<rect x="15000" y="13000" width="7000" height="2000" rx="0" />
<path d="M15000 14000
L14000 14000
" />
</g>
<g style="fill:#008484; fill-opacity:0.0; 
stroke:#008484; stroke-width:60; stroke-opacity:1; 
stroke-linecap:round; stroke-linejoin:round;">
<text x="15400" y="14250"
textLength="1580" font-size="660" lengthAdjust="spacingAndGlyphs"
text-anchor="start" opacity="0">GND</text>
<path d="M15810 13750
L15760 13720
L15690 13720
L15620 13750
L15570 13790
L15540 13840
L15520 13940
L15520 14010
L15540 14100
L15570 14150
L15620 14200
L15690 14220
L15730 14220
L15810 14200
L15830 14170
L15830 14010
L15730 14010
" />
<path d="M16040 14220
L16040 13720
L16330 14220
L16330 13720
" />
<path d="M16570 14220
L16570 13720
L16690 13720
L16760 13750
L16810 13790
L16830 13840
L16850 13940
L16850 14010
L16830 14100
L16810 14150
L16760 14200
L16690 14220
L16570 14220
" />
</g>
<g style="fill:#840000; fill-opacity:0.0; 
stroke:#840000; stroke-width:60; stroke-opacity:1; 
stroke-linecap:round; stroke-linejoin:round;">
<text x="14500" y="13900"
textLength="540" font-size="660" lengthAdjust="spacingAndGlyphs"
text-anchor="middle" opacity="0">1</text>
<path d="M14640 13870
L14350 13870
" />
<path d="M14500 13870
L14500 13370
L14450 13440
L14400 13490
L14350 13510
" />
<path d="M22000 14000
L23000 14000
" />
</g>
<g style="fill:#008484; fill-opacity:0.0; 
stroke:#008484; stroke-width:60; stroke-opacity:1; 
stroke-linecap:round; stroke-linejoin:round;">
<text x="21600" y="14250"
textLength="3130" font-size="660" lengthAdjust="spacingAndGlyphs"
text-anchor="end" opacity="0">TRIGGER</text>
<path d="M18540 13720
L18830 13720
" />
<path d="M18680 14220
L18680 13720
" />
<path d="M19280 14220
L19110 13980
" />
<path d="M18990 14220
L18990 13720
L19180 13720
L19230 13750
L19260 13770
L19280 13820
L19280 13890
L19260 13940
L19230 13960
L19180 13980
L18990 13980
" />
<path d="M19490 14220
L19490 13720
" />
<path d="M19990 13750
L19950 13720
L19870 13720
L19800 13750
L19760 13790
L19730 13840
L19710 13940
L19710 14010
L19730 14100
L19760 14150
L19800 14200
L19870 14220
L19920 14220
L19990 14200
L20020 14170
L20020 14010
L19920 14010
" />
<path d="M20490 13750
L20450 13720
L20370 13720
L20300 13750
L20260 13790
L20230 13840
L20210 13940
L20210 14010
L20230 14100
L20260 14150
L20300 14200
L20370 14220
L20420 14220
L20490 14200
L20520 14170
L20520 14010
L20420 14010
" />
<path d="M20730 13960
L20900 13960
" />
<path d="M20970 14220
L20730 14220
L20730 13720
L20970 13720
" />
<path d="M21470 14220
L21300 13980
" />
<path d="M21180 14220
L21180 13720
L21370 13720
L21420 13750
L21450 13770
L21470 13820
L21470 13890
L21450 13940
L21420 13960
L21370 13980
L21180 13980
" />
</g>
<g style="fill:#840000; fill-opacity:0.0; 
stroke:#840000; stroke-width:60; stroke-opacity:1; 
stroke-linecap:round; stroke-linejoin:round;">
<text x="22500" y="13900"
textLength="540" font-size="660" lengthAdjust="spacingAndGlyphs"
text-anchor="middle" opacity="0">2</text>
<path d="M22350 13420
L22380 13400
L22420 13370
L22540 13370
L22590 13400
L22610 13420
L22640 13470
L22640 13510
L22610 13590
L22330 13870
L22640 13870
" />
</g>
<g style="fill:#008484; fill-opacity:0.0; 
stroke:#008484; stroke-width:60; stroke-opacity:1; 
stroke-linecap:round; stroke-linejoin:round;">
<text x="18500" y="11620"
textLength="1040" font-size="660" lengthAdjust="spacingAndGlyphs"
text-anchor="middle" opacity="0">P1</text>
<path d="M18130 11590
L18130 11090
L18320 11090
L18360 11120
L18390 11140
L18410 11190
L18410 11260
L18390 11310
L18360 11330
L18320 11350
L18130 11350
" />
<path d="M18890 11590
L18600 11590
" />
<path d="M18750 11590
L18750 11090
L18700 11160
L18650 11210
L18600 11230
" />
<text x="18500" y="12530"
textLength="5660" font-size="660" lengthAdjust="spacingAndGlyphs"
text-anchor="middle" opacity="0">Hotshoe_Mount</text>
<path d="M15820 12500
L15820 12000
" />
<path d="M15820 12240
L16100 12240
" />
<path d="M16100 12500
L16100 12000
" />
<path d="M16410 12500
L16360 12480
L16340 12450
L16320 12410
L16320 12260
L16340 12220
L16360 12190
L16410 12170
L16480 12170
L16530 12190
L16550 12220
L16580 12260
L16580 12410
L16550 12450
L16530 12480
L16480 12500
L16410 12500
" />
<path d="M16720 12170
L16910 12170
" />
<path d="M16790 12000
L16790 12430
L16820 12480
L16860 12500
L16910 12500
" />
<path d="M17050 12480
L17100 12500
L17200 12500
L17250 12480
L17270 12430
L17270 12410
L17250 12360
L17200 12330
L17130 12330
L17080 12310
L17050 12260
L17050 12240
L17080 12190
L17130 12170
L17200 12170
L17250 12190
" />
<path d="M17480 12500
L17480 12000
" />
<path d="M17700 12500
L17700 12240
L17670 12190
L17630 12170
L17550 12170
L17510 12190
L17480 12220
" />
<path d="M18010 12500
L17960 12480
L17940 12450
L17910 12410
L17910 12260
L17940 12220
L17960 12190
L18010 12170
L18080 12170
L18130 12190
L18150 12220
L18170 12260
L18170 12410
L18150 12450
L18130 12480
L18080 12500
L18010 12500
" />
<path d="M18580 12480
L18530 12500
L18440 12500
L18390 12480
L18360 12430
L18360 12240
L18390 12190
L18440 12170
L18530 12170
L18580 12190
L18600 12240
L18600 12290
L18360 12330
" />
<path d="M18700 12550
L19080 12550
" />
<path d="M19200 12500
L19200 12000
L19360 12360
L19530 12000
L19530 12500
" />
<path d="M19840 12500
L19790 12480
L19770 12450
L19750 12410
L19750 12260
L19770 12220
L19790 12190
L19840 12170
L19910 12170
L19960 12190
L19980 12220
L20010 12260
L20010 12410
L19980 12450
L19960 12480
L19910 12500
L19840 12500
" />
<path d="M20440 12170
L20440 12500
" />
<path d="M20220 12170
L20220 12430
L20250 12480
L20290 12500
L20360 12500
L20410 12480
L20440 12450
" />
<path d="M20670 12170
L20670 12500
" />
<path d="M20670 12220
L20700 12190
L20750 12170
L20820 12170
L20860 12190
L20890 12240
L20890 12500
" />
<path d="M21050 12170
L21250 12170
" />
<path d="M21130 12000
L21130 12430
L21150 12480
L21200 12500
L21250 12500
" />
</g>
</g>
<g style="fill:#008484; fill-opacity:0.0; 
stroke:#008484; stroke-width:0; stroke-opacity:1; 
stroke-linecap:round; stroke-linejoin:round;">
<g >
</g>
<g style="fill:#840000; fill-opacity:0.0; 
stroke:#840000; stroke-width:0; stroke-opacity:1; 
stroke-linecap:round; stroke-linejoin:round;">
</g>
<g style="fill:#840000; fill-opacity:0.0; 
stroke:#840000; stroke-width:60; stroke-opacity:1; 
stroke-linecap:round; stroke-linejoin:round;">
<path style="fill:#840000; fill-opacity:0.0; 
stroke:#840000; stroke-width:60; stroke-opacity:1; 
stroke-linecap:round; stroke-linejoin:round;fill:none"
d="M 22500,28500
22650,28100
22800,28500
22950,28900
23100,28500
" /> 
<path style="fill:#840000; fill-opacity:0.0; 
stroke:#840000; stroke-width:60; stroke-opacity:1; 
stroke-linecap:round; stroke-linejoin:round;fill:none"
d="M 21900,28500
22050,28100
22200,28500
22350,28900
22500,28500
" /> 
<path d="M21900 28500
L21500 28500
" />
<path d="M23100 28500
L23500 28500
" />
</g>
<g style="fill:#008484; fill-opacity:0.0; 
stroke:#008484; stroke-width:60; stroke-opacity:1; 
stroke-linecap:round; stroke-linejoin:round;">
<text x="22500" y="26670"
textLength="1040" font-size="660" lengthAdjust="spacingAndGlyphs"
text-anchor="middle" opacity="0">R2</text>
<path d="M22410 26640
L22250 26400
" />
<path d="M22130 26640
L22130 26140
L22320 26140
L22360 26170
L22390 26190
L22410 26240
L22410 26310
L22390 26360
L22360 26380
L22320 26400
L22130 26400
" />
<path d="M22600 26190
L22630 26170
L22670 26140
L22790 26140
L22840 26170
L22860 26190
L22890 26240
L22890 26280
L22860 26360
L22580 26640
L22890 26640
" />
<text x="22490" y="27580"
textLength="1510" font-size="660" lengthAdjust="spacingAndGlyphs"
text-anchor="middle" opacity="0">10K</text>
<path d="M22140 27550
L21850 27550
" />
<path d="M22000 27550
L22000 27050
L21950 27120
L21900 27170
L21850 27190
" />
<path d="M22450 27050
L22500 27050
L22540 27080
L22570 27100
L22590 27150
L22620 27240
L22620 27360
L22590 27460
L22570 27500
L22540 27530
L22500 27550
L22450 27550
L22400 27530
L22380 27500
L22350 27460
L22330 27360
L22330 27240
L22350 27150
L22380 27100
L22400 27080
L22450 27050
" />
<path d="M22830 27550
L22830 27050
" />
<path d="M23120 27550
L22900 27270
" />
<path d="M23120 27050
L22830 27340
" />
</g>
</g>
<g style="fill:#008484; fill-opacity:0.0; 
stroke:#008484; stroke-width:0; stroke-opacity:1; 
stroke-linecap:round; stroke-linejoin:round;">
<g >
</g>
<g style="fill:#840000; fill-opacity:0.0; 
stroke:#840000; stroke-width:0; stroke-opacity:1; 
stroke-linecap:round; stroke-linejoin:round;">
</g>
<g style="fill:#840000; fill-opacity:0.0; 
stroke:#840000; stroke-width:60; stroke-opacity:1; 
stroke-linecap:round; stroke-linejoin:round;">
<path style="fill:#840000; fill-opacity:0.0; 
stroke:#840000; stroke-width:60; stroke-opacity:1; 
stroke-linecap:round; stroke-linejoin:round;fill:none"
d="M 29500,15000
29350,15400
29200,15000
29050,14600
28900,15000
" /> 
<path style="fill:#840000; fill-opacity:0.0; 
stroke:#840000; stroke-width:60; stroke-opacity:1; 
stroke-linecap:round; stroke-linejoin:round;fill:none"
d="M 30100,15000
29950,15400
29800,15000
29650,14600
29500,15000
" /> 
<path d="M30100 15000
L30500 15000
" />
<path d="M28900 15000
L28500 15000
" />
</g>
<g style="fill:#008484; fill-opacity:0.0; 
stroke:#008484; stroke-width:60; stroke-opacity:1; 
stroke-linecap:round; stroke-linejoin:round;">
<text x="30500" y="15770"
textLength="1040" font-size="660" lengthAdjust="spacingAndGlyphs"
text-anchor="middle" opacity="0">R1</text>
<path d="M30410 15740
L30250 15500
" />
<path d="M30130 15740
L30130 15240
L30320 15240
L30360 15270
L30390 15290
L30410 15340
L30410 15410
L30390 15460
L30360 15480
L30320 15500
L30130 15500
" />
<path d="M30890 15740
L30600 15740
" />
<path d="M30750 15740
L30750 15240
L30700 15310
L30650 15360
L30600 15380
" />
<text x="28500" y="15770"
textLength="1040" font-size="660" lengthAdjust="spacingAndGlyphs"
text-anchor="middle" opacity="0">1K</text>
<path d="M28390 15740
L28100 15740
" />
<path d="M28250 15740
L28250 15240
L28200 15310
L28150 15360
L28100 15380
" />
<path d="M28600 15740
L28600 15240
" />
<path d="M28890 15740
L28670 15460
" />
<path d="M28890 15240
L28600 15530
" />
</g>
</g>
<g style="fill:#008484; fill-opacity:0.0; 
stroke:#008484; stroke-width:0; stroke-opacity:1; 
stroke-linecap:round; stroke-linejoin:round;">
<g >
</g>
<g style="fill:#840000; fill-opacity:0.0; 
stroke:#840000; stroke-width:0; stroke-opacity:1; 
stroke-linecap:round; stroke-linejoin:round;">
</g>
<g style="fill:#840000; fill-opacity:0.0; 
stroke:#840000; stroke-width:100; stroke-opacity:1; 
stroke-linecap:round; stroke-linejoin:round;">
<circle cx="25000" cy="35150" r="1100" /> 
</g>
<g style="fill:#840000; fill-opacity:1.0; 
stroke:#840000; stroke-width:60; stroke-opacity:1; 
stroke-linecap:round; stroke-linejoin:round;">
<circle cx="24300" cy="35500" r="100" /> 
<circle cx="25700" cy="35500" r="100" /> 
</g>
<g style="fill:#840000; fill-opacity:0.0; 
stroke:#840000; stroke-width:60; stroke-opacity:1; 
stroke-linecap:round; stroke-linejoin:round;">
<path style="fill:#840000; fill-opacity:0.0; 
stroke:#840000; stroke-width:60; stroke-opacity:1; 
stroke-linecap:round; stroke-linejoin:round;fill:none"
d="M 25000,34600
25000,33500
" /> 
</g>
<g style="fill:#840000; fill-opacity:0.0; 
stroke:#840000; stroke-width:100; stroke-opacity:1; 
stroke-linecap:round; stroke-linejoin:round;">
<path style="fill:#840000; fill-opacity:0.0; 
stroke:#840000; stroke-width:100; stroke-opacity:1; 
stroke-linecap:round; stroke-linejoin:round;fill:none"
d="M 25750,34600
24250,34600
" /> 
<path style="fill:#840000; fill-opacity:0.0; 
stroke:#840000; stroke-width:100; stroke-opacity:1; 
stroke-linecap:round; stroke-linejoin:round;fill:none"
d="M 24500,34800
24100,34800
" /> 
<path style="fill:#840000; fill-opacity:0.0; 
stroke:#840000; stroke-width:100; stroke-opacity:1; 
stroke-linecap:round; stroke-linejoin:round;fill:none"
d="M 25200,34800
24800,34800
" /> 
<path style="fill:#840000; fill-opacity:0.0; 
stroke:#840000; stroke-width:100; stroke-opacity:1; 
stroke-linecap:round; stroke-linejoin:round;fill:none"
d="M 25900,34800
25500,34800
" /> 
</g>
<g style="fill:#840000; fill-opacity:0.0; 
stroke:#840000; stroke-width:60; stroke-opacity:1; 
stroke-linecap:round; stroke-linejoin:round;">
<path style="fill:#840000; fill-opacity:0.0; 
stroke:#840000; stroke-width:60; stroke-opacity:1; 
stroke-linecap:round; stroke-linejoin:round;fill:none"
d="M 26000,35500
25700,35500
" /> 
<path style="fill:#840000; fill-opacity:0.0; 
stroke:#840000; stroke-width:60; stroke-opacity:1; 
stroke-linecap:round; stroke-linejoin:round;fill:none"
d="M 24000,35500
25000,35500
25000,34800
" /> 
<path style="fill:#840000; fill-opacity:0.0; 
stroke:#840000; stroke-width:60; stroke-opacity:1; 
stroke-linecap:round; stroke-linejoin:round;fill:none"
d="M 24300,34800
24300,35800
25700,35800
25700,34800
" /> 
</g>
<g style="fill:#840000; fill-opacity:1.0; 
stroke:#840000; stroke-width:60; stroke-opacity:1; 
stroke-linecap:round; stroke-linejoin:round;">
<path style="fill:#840000; fill-opacity:1.0; 
stroke:#840000; stroke-width:60; stroke-opacity:1; 
stroke-linecap:round; stroke-linejoin:round;fill-rule:evenodd;"
d="M 25000,34900
25150,35300
24850,35300
Z" /> 
</g>
<g style="fill:#840000; fill-opacity:0.0; 
stroke:#840000; stroke-width:60; stroke-opacity:1; 
stroke-linecap:round; stroke-linejoin:round;">
<path style="fill:#840000; fill-opacity:0.0; 
stroke:#840000; stroke-width:60; stroke-opacity:1; 
stroke-linecap:round; stroke-linejoin:round;fill:none"
d="M 25200,35600
25150,35650
25150,35950
25100,36000
" /> 
<path style="fill:#840000; fill-opacity:0.0; 
stroke:#840000; stroke-width:60; stroke-opacity:1; 
stroke-linecap:round; stroke-linejoin:round;fill:none"
d="M 25150,35800
24900,35650
24900,35950
Z" /> 
<path d="M24000 35500
L23000 35500
" />
<text x="23500" y="35400"
textLength="540" font-size="660" lengthAdjust="spacingAndGlyphs"
text-anchor="middle" opacity="0">1</text>
<path d="M23640 35370
L23350 35370
" />
<path d="M23500 35370
L23500 34870
L23450 34940
L23400 34990
L23350 35010
" />
<path d="M25000 33500
L25000 32500
" />
<g transform="rotate(-90 24900 33000)">
<text x="24900" y="33000"
textLength="540" font-size="660" lengthAdjust="spacingAndGlyphs"
text-anchor="middle" opacity="0">2</text>
</g>
<path d="M24420 33140
L24400 33110
L24370 33070
L24370 32950
L24400 32900
L24420 32880
L24470 32850
L24510 32850
L24590 32880
L24870 33160
L24870 32850
" />
<path d="M26000 35500
L27000 35500
" />
<text x="26500" y="35400"
textLength="540" font-size="660" lengthAdjust="spacingAndGlyphs"
text-anchor="middle" opacity="0">3</text>
<path d="M26330 34870
L26640 34870
L26470 35060
L26540 35060
L26590 35090
L26610 35110
L26640 35160
L26640 35280
L26610 35320
L26590 35350
L26540 35370
L26400 35370
L26350 35350
L26330 35320
" />
</g>
<g style="fill:#008484; fill-opacity:0.0; 
stroke:#008484; stroke-width:60; stroke-opacity:1; 
stroke-linecap:round; stroke-linejoin:round;">
<text x="25000" y="37260"
textLength="1060" font-size="660" lengthAdjust="spacingAndGlyphs"
text-anchor="middle" opacity="0">Q1</text>
<path d="M24950 37280
L24900 37260
L24850 37210
L24780 37140
L24730 37110
L24690 37110
" />
<path d="M24710 37230
L24660 37210
L24610 37160
L24590 37060
L24590 36900
L24610 36800
L24660 36760
L24710 36730
L24800 36730
L24850 36760
L24900 36800
L24920 36900
L24920 37060
L24900 37160
L24850 37210
L24800 37230
L24710 37230
" />
<path d="M25400 37230
L25110 37230
" />
<path d="M25260 37230
L25260 36730
L25210 36800
L25160 36850
L25110 36870
" />
<text x="25000" y="38170"
textLength="2960" font-size="660" lengthAdjust="spacingAndGlyphs"
text-anchor="middle" opacity="0">2N7000</text>
<path d="M23640 37690
L23660 37670
L23710 37640
L23830 37640
L23880 37670
L23900 37690
L23920 37740
L23920 37780
L23900 37860
L23610 38140
L23920 38140
" />
<path d="M24140 38140
L24140 37640
L24420 38140
L24420 37640
" />
<path d="M24610 37640
L24950 37640
L24730 38140
" />
<path d="M25230 37640
L25280 37640
L25330 37670
L25350 37690
L25380 37740
L25400 37830
L25400 37950
L25380 38050
L25350 38090
L25330 38120
L25280 38140
L25230 38140
L25190 38120
L25160 38090
L25140 38050
L25110 37950
L25110 37830
L25140 37740
L25160 37690
L25190 37670
L25230 37640
" />
<path d="M25710 37640
L25760 37640
L25800 37670
L25830 37690
L25850 37740
L25880 37830
L25880 37950
L25850 38050
L25830 38090
L25800 38120
L25760 38140
L25710 38140
L25660 38120
L25640 38090
L25610 38050
L25590 37950
L25590 37830
L25610 37740
L25640 37690
L25660 37670
L25710 37640
" />
<path d="M26190 37640
L26230 37640
L26280 37670
L26300 37690
L26330 37740
L26350 37830
L26350 37950
L26330 38050
L26300 38090
L26280 38120
L26230 38140
L26190 38140
L26140 38120
L26110 38090
L26090 38050
L26070 37950
L26070 37830
L26090 37740
L26110 37690
L26140 37670
L26190 37640
" />
</g>
</g>
<g style="fill:#008484; fill-opacity:0.0; 
stroke:#008484; stroke-width:0; stroke-opacity:1; 
stroke-linecap:round; stroke-linejoin:round;">
<g >
</g>
<g style="fill:#840000; fill-opacity:0.0; 
stroke:#840000; stroke-width:0; stroke-opacity:1; 
stroke-linecap:round; stroke-linejoin:round;">
</g>
<g style="fill:#840000; fill-opacity:0.0; 
stroke:#840000; stroke-width:60; stroke-opacity:1; 
stroke-linecap:round; stroke-linejoin:round;">
<path style="fill:#840000; fill-opacity:0.0; 
stroke:#840000; stroke-width:60; stroke-opacity:1; 
stroke-linecap:round; stroke-linejoin:round;fill:none"
d="M 36500,35500
36650,35100
36800,35500
36950,35900
37100,35500
" /> 
<path style="fill:#840000; fill-opacity:0.0; 
stroke:#840000; stroke-width:60; stroke-opacity:1; 
stroke-linecap:round; stroke-linejoin:round;fill:none"
d="M 35900,35500
36050,35100
36200,35500
36350,35900
36500,35500
" /> 
<path d="M35900 35500
L35500 35500
" />
<path d="M37100 35500
L37500 35500
" />
</g>
<g style="fill:#008484; fill-opacity:0.0; 
stroke:#008484; stroke-width:60; stroke-opacity:1; 
stroke-linecap:round; stroke-linejoin:round;">
<text x="36500" y="33670"
textLength="1040" font-size="660" lengthAdjust="spacingAndGlyphs"
text-anchor="middle" opacity="0">R3</text>
<path d="M36410 33640
L36250 33400
" />
<path d="M36130 33640
L36130 33140
L36320 33140
L36360 33170
L36390 33190
L36410 33240
L36410 33310
L36390 33360
L36360 33380
L36320 33400
L36130 33400
" />
<path d="M36580 33140
L36890 33140
L36720 33330
L36790 33330
L36840 33360
L36860 33380
L36890 33430
L36890 33550
L36860 33590
L36840 33620
L36790 33640
L36650 33640
L36600 33620
L36580 33590
" />
<text x="36490" y="34580"
textLength="1010" font-size="660" lengthAdjust="spacingAndGlyphs"
text-anchor="middle" opacity="0">20</text>
<path d="M36100 34100
L36130 34080
L36180 34050
L36290 34050
L36340 34080
L36370 34100
L36390 34150
L36390 34190
L36370 34270
L36080 34550
L36390 34550
" />
<path d="M36700 34050
L36750 34050
L36790 34080
L36820 34100
L36840 34150
L36870 34240
L36870 34360
L36840 34460
L36820 34500
L36790 34530
L36750 34550
L36700 34550
L36650 34530
L36630 34500
L36600 34460
L36580 34360
L36580 34240
L36600 34150
L36630 34100
L36650 34080
L36700 34050
" />
</g>
</g>
<g style="fill:#008484; fill-opacity:0.0; 
stroke:#008484; stroke-width:60; stroke-opacity:1; 
stroke-linecap:round; stroke-linejoin:round;">
</g>
<g style="fill:#008400; fill-opacity:0.0; 
stroke:#008400; stroke-width:60; stroke-opacity:1; 
stroke-linecap:round; stroke-linejoin:round;">
<path d="M40000 19000
L45000 19000
" />
<path d="M39000 35500
L39000 34000
" />
<path d="M37500 35500
L39000 35500
" />
<path d="M35500 35500
L33500 35500
" />
<path d="M45000 19000
L45000 22000
" />
<path d="M45000 14000
L45000 11000
" />
<path d="M40000 14000
L45000 14000
" />
<path d="M27000 35500
L30500 35500
" />
<path d="M20000 28500
L20000 35500
" />
<path d="M21500 28500
L20000 28500
" />
<path d="M25000 28500
L25000 32500
" />
<path d="M23500 28500
L25000 28500
" />
<path d="M20000 35500
L23000 35500
" />
<path d="M20000 37000
L20000 35500
" />
<path d="M25000 15000
L25000 28500
" />
<path d="M28500 15000
L25000 15000
" />
<path d="M30500 15000
L33500 15000
" />
<path d="M23000 14000
L33500 14000
" />
<path d="M12000 14000
L12000 15000
" />
<path d="M14000 14000
L12000 14000
" />
</g>
<g style="fill:#008400; fill-opacity:0.0; 
stroke:#008400; stroke-width:0; stroke-opacity:1; 
stroke-linecap:round; stroke-linejoin:round;">
</g>
<g style="fill:#008400; fill-opacity:1.0; 
stroke:#008400; stroke-width:100; stroke-opacity:1; 
stroke-linecap:round; stroke-linejoin:round;">
<circle cx="20000" cy="35500" r="200" /> 
</g>
<g style="fill:#008400; fill-opacity:1.0; 
stroke:#008400; stroke-width:0; stroke-opacity:1; 
stroke-linecap:round; stroke-linejoin:round;">
</g>
<g style="fill:#008400; fill-opacity:1.0; 
stroke:#008400; stroke-width:100; stroke-opacity:1; 
stroke-linecap:round; stroke-linejoin:round;">
<circle cx="25000" cy="28500" r="200" /> 
</g> 
</svg>
